<svg width="18" height="18" fill="none" xmlns="http://www.w3.org/2000/svg"><path d="M7.32 10.775a2.343 2.343 0 0 1-.693-1.671 2.37 2.37 0 0 1 4.045-1.681M11.329 9.524a2.368 2.368 0 0 1-1.903 1.907" stroke="#ADA4A5" stroke-width="1.2" stroke-linecap="round" stroke-linejoin="round"/><path d="M4.99 13.104c-1.19-.934-2.197-2.3-2.928-4.001.738-1.71 1.753-3.082 2.95-4.024C6.204 4.137 7.577 3.626 9 3.626c1.431 0 2.804.519 4.002 1.467M14.586 6.743c.516.686.97 1.477 1.351 2.36-1.475 3.417-4.082 5.476-6.937 5.476a5.984 5.984 0 0 1-1.9-.31M14.915 3.187l-11.83 11.83" stroke="#ADA4A5" stroke-width="1.2" stroke-linecap="round" stroke-linejoin="round"/></svg>
